<?xml version="1.0" standalone="no"?>
<svg xmlns:xlink="http://www.w3.org/1999/xlink" id="wave" style="transform:rotate(0deg); transition: 0.3s" viewBox="0 0 1440 100" version="1.1" xmlns="http://www.w3.org/2000/svg"><defs><linearGradient id="sw-gradient-0" x1="0" x2="0" y1="1" y2="0"><stop stop-color="rgba(0, 32, 53, 1)" offset="0%"/><stop stop-color="rgba(0, 32, 53, 1)" offset="100%"/></linearGradient></defs><path style="transform:translate(0, 0px); opacity:1" fill="url(#sw-gradient-0)" d="M0,70L80,66.7C160,63,320,57,480,60C640,63,800,77,960,75C1120,73,1280,57,1440,46.7C1600,37,1760,33,1920,40C2080,47,2240,63,2400,65C2560,67,2720,53,2880,41.7C3040,30,3200,20,3360,26.7C3520,33,3680,57,3840,65C4000,73,4160,67,4320,60C4480,53,4640,47,4800,40C4960,33,5120,27,5280,25C5440,23,5600,27,5760,33.3C5920,40,6080,50,6240,55C6400,60,6560,60,6720,55C6880,50,7040,40,7200,38.3C7360,37,7520,43,7680,50C7840,57,8000,63,8160,66.7C8320,70,8480,70,8640,60C8800,50,8960,30,9120,31.7C9280,33,9440,57,9600,60C9760,63,9920,47,10080,45C10240,43,10400,57,10560,65C10720,73,10880,77,11040,76.7C11200,77,11360,73,11440,71.7L11520,70L11520,100L11440,100C11360,100,11200,100,11040,100C10880,100,10720,100,10560,100C10400,100,10240,100,10080,100C9920,100,9760,100,9600,100C9440,100,9280,100,9120,100C8960,100,8800,100,8640,100C8480,100,8320,100,8160,100C8000,100,7840,100,7680,100C7520,100,7360,100,7200,100C7040,100,6880,100,6720,100C6560,100,6400,100,6240,100C6080,100,5920,100,5760,100C5600,100,5440,100,5280,100C5120,100,4960,100,4800,100C4640,100,4480,100,4320,100C4160,100,4000,100,3840,100C3680,100,3520,100,3360,100C3200,100,3040,100,2880,100C2720,100,2560,100,2400,100C2240,100,2080,100,1920,100C1760,100,1600,100,1440,100C1280,100,1120,100,960,100C800,100,640,100,480,100C320,100,160,100,80,100L0,100Z"/></svg>